<mxfile host="app.diagrams.net" modified="2023-08-24T10:49:22.397Z" agent="Mozilla/5.0 (Macintosh; Intel Mac OS X 10_15_7) AppleWebKit/537.36 (KHTML, like Gecko) Chrome/115.0.0.0 Safari/537.36" version="21.6.9" etag="xeAJiU4JRdsBoIHTkuJq" type="github">
  <diagram name="Page-1" id="XxasjAIR7I9dmgim5ud6">
    <mxGraphModel>
      <root>
        <mxCell id="0" />
        <mxCell id="1" parent="0" />
      </root>
    </mxGraphModel>
  </diagram>
</mxfile>
